<svg xmlns="http://www.w3.org/2000/svg" viewBox="0 0 1200 630" role="img" aria-label="VozClin landing">
  <defs>
    <linearGradient id="ogBrandBg" x1="8" y1="6" x2="56" y2="58" gradientUnits="userSpaceOnUse">
      <stop offset="0" stop-color="#F7FFFC"/>
      <stop offset="0.58" stop-color="#E5F7F2"/>
      <stop offset="1" stop-color="#CFF0EA"/>
    </linearGradient>
    <linearGradient id="ogBrandStroke" x1="16" y1="13" x2="49" y2="51" gradientUnits="userSpaceOnUse">
      <stop offset="0" stop-color="#0B8F86"/>
      <stop offset="1" stop-color="#16B8AA"/>
    </linearGradient>
  </defs>
  <rect width="1200" height="630" fill="#fbfdfb"/>
  <path d="M0 0h1200v630H0z" fill="#fbfdfb"/>
  <path d="M0 470h1200v160H0z" fill="#063f3b"/>
  <g transform="translate(74 72) scale(1.3125)">
    <rect width="64" height="64" rx="15" fill="url(#ogBrandBg)" stroke="#BFE7DF" stroke-width="1.4"/>
    <path d="M17.8 17.4l12.1 29.1c.82 1.98 3.39 2.04 4.28.09l13.34-29.19" fill="none" stroke="url(#ogBrandStroke)" stroke-width="6.2" stroke-linecap="round" stroke-linejoin="round"/>
    <path d="M22.5 34.2h5.9l1.8-4.5 4.2 10.2 2.2-5.7h5.2" fill="none" stroke="#0AA39A" stroke-width="2.05" stroke-linecap="round" stroke-linejoin="round"/>
    <circle cx="50.6" cy="50.6" r="4.1" fill="#16B8AA"/>
    <circle cx="50.6" cy="50.6" r="1.35" fill="#F7FFFC"/>
  </g>
  <text x="182" y="128" fill="#082622" font-family="Arial, sans-serif" font-size="54" font-weight="800">VozClin</text>
  <text x="74" y="270" fill="#082622" font-family="Georgia, serif" font-size="72" font-weight="700">Documentação clínica por voz</text>
  <text x="74" y="348" fill="#294b47" font-family="Arial, sans-serif" font-size="34">Fichas estruturadas, revisão humana e IA com limites claros.</text>
  <rect x="780" y="116" width="330" height="250" rx="12" fill="#063f3b"/>
  <path d="M824 244c10 0 10-64 20-64s10 118 20 118 10-82 20-82 10 40 20 40 10-25 20-25 10 12 20 12 10-67 20-67 10 122 20 122 10-86 20-86 10 28 20 28 10-18 20-18 10 46 20 46" fill="none" stroke="#dff8f2" stroke-width="9" stroke-linecap="round"/>
  <text x="74" y="548" fill="#dff8f2" font-family="Arial, sans-serif" font-size="30" font-weight="700">Apoio à documentação clínica com revisão profissional obrigatória</text>
</svg>
