<svg xmlns="http://www.w3.org/2000/svg" viewBox="0 0 1200 630" role="img" aria-label="VozClin landing">
  <defs>
    <linearGradient id="ogBrandBg" x1="6" y1="4" x2="58" y2="62" gradientUnits="userSpaceOnUse">
      <stop offset="0" stop-color="#0D8C84"/>
      <stop offset="0.58" stop-color="#0AA39A"/>
      <stop offset="1" stop-color="#16B8AA"/>
    </linearGradient>
    <linearGradient id="ogBrandTube" x1="18" y1="12" x2="48" y2="55" gradientUnits="userSpaceOnUse">
      <stop offset="0" stop-color="#FFFFFF"/>
      <stop offset="1" stop-color="#DDF8F2"/>
    </linearGradient>
  </defs>
  <rect width="1200" height="630" fill="#fbfdfb"/>
  <path d="M0 0h1200v630H0z" fill="#fbfdfb"/>
  <path d="M0 470h1200v160H0z" fill="#063f3b"/>
  <g transform="translate(74 72) scale(1.3125)">
    <rect width="64" height="64" rx="14" fill="url(#ogBrandBg)"/>
    <path d="M20 16.1v6.8c0 9.6 4.9 16.1 12 20.8 7.1-4.7 12-11.2 12-20.8v-6.8" stroke="url(#ogBrandTube)" stroke-width="5" stroke-linecap="round" stroke-linejoin="round"/>
    <path d="M32 43.6c-.2 4.9 3.8 8.7 9.2 8.7" stroke="url(#ogBrandTube)" stroke-width="5" stroke-linecap="round"/>
    <circle cx="20" cy="14.1" r="3.25" fill="#F7FFFC"/>
    <circle cx="44" cy="14.1" r="3.25" fill="#F7FFFC"/>
    <circle cx="45.2" cy="52.1" r="4.35" stroke="#F7FFFC" stroke-width="3.4"/>
    <circle cx="45.2" cy="52.1" r="1.35" fill="#AEECE3"/>
    <path d="M25.1 31.4h3.1l1.6-4.4 3.5 9.4 1.8-5h3.1" stroke="#AEECE3" stroke-width="2.15" stroke-linecap="round" stroke-linejoin="round"/>
  </g>
  <text x="182" y="128" fill="#082622" font-family="Arial, sans-serif" font-size="54" font-weight="800">VozClin</text>
  <text x="74" y="270" fill="#082622" font-family="Georgia, serif" font-size="72" font-weight="700">Documentação clínica por voz</text>
  <text x="74" y="348" fill="#294b47" font-family="Arial, sans-serif" font-size="34">Fichas estruturadas, revisão humana e IA com limites claros.</text>
  <rect x="780" y="116" width="330" height="250" rx="12" fill="#063f3b"/>
  <path d="M824 244c10 0 10-64 20-64s10 118 20 118 10-82 20-82 10 40 20 40 10-25 20-25 10 12 20 12 10-67 20-67 10 122 20 122 10-86 20-86 10 28 20 28 10-18 20-18 10 46 20 46" fill="none" stroke="#dff8f2" stroke-width="9" stroke-linecap="round"/>
  <text x="74" y="548" fill="#dff8f2" font-family="Arial, sans-serif" font-size="30" font-weight="700">Apoio à documentação clínica com revisão profissional obrigatória</text>
</svg>
